<?xml version="1.0" encoding="UTF-8"?>
<svg id="Layer_1" data-name="Layer 1" xmlns="http://www.w3.org/2000/svg" viewBox="0 0 1812.26 887.63">
  <defs>
    <style>
      .cls-1 {
        fill: #fff;
      }
    </style>
  </defs>
  <g id="fJMPJE">
    <g>
      <path class="cls-1" d="M0,0h1812.26v887.63H0V0ZM1777.56,32.28H32.28v820.77h1745.28V32.28Z"/>
      <path class="cls-1" d="M1719.92,76.08v735.46H89.92V76.08h1630.01ZM304.33,172.91h-126.8v539.49h96.83l2.33-237.46,37.18,233.68c.77,2.99,2.83,3.29,5.45,3.78,14.94,2.76,36.99-2.14,52.84.13l39.38-242.24,3.46,242.1h186.75l9.21-83.01,76.24,1.02,9.06,76.24,3.47,5.75h183.29v-172.91c8.42,1.65,19.23-7.48,23.6,2.93l43.26,169.99h96.83l-58.87-209.71c14.54-13.02,26.41-27.76,36.21-44.65l22.63-61.48,50.49,314.5,115.3,1.1,76.32-463.16v463.41h184.44v-99.14h-85.3c.75-2.26-2.31-5-2.31-5.76v-112.97l3.46-3.46h84.15v-99.14h-85.3c.75-2.26-2.31-5-2.31-5.76v-111.82c2.26.75,5-2.31,5.76-2.31h81.85v-99.14h-274.36l-42.65,315.88-44.96-315.88h-99.14l9.2,76.08c-23.45-30.5-47.51-55.62-85.38-67.92-6.4-2.08-28.07-8.16-33.34-8.16h-115.28l-3.46,3.46v446.12l-69.19-449.56-125.63-.02-5.42,3.8-71.81,464.23V172.91h-126.8l-40.35,260.55-40.35-260.55ZM1586.2,172.91h-96.83v537.19h177.53v-96.83h-80.69V172.91Z"/>
      <path class="cls-1" d="M883.02,440.36v-170.61c56.67,2.33,71.69,64.49,61.61,111.18-6.21,28.75-28.4,62.7-61.61,59.43Z"/>
      <path class="cls-1" d="M652.45,322.79l25.2,217.57c-2.52,8.93-46.36.14-55.14,3.75,8.08-67.71,13.21-136.28,23.35-203.72.69-4.58,1.24-9.69,2.07-14.14.7-3.76-1.52-3.99,4.52-3.46Z"/>
    </g>
  </g>
</svg>